<svg xmlns="http://www.w3.org/2000/svg" viewBox="0 0 1027 178.13"><defs><style>.cls-1{fill:#1ed761;}</style></defs><g id="Layer_2" data-name="Layer 2"><g id="Layer_1-2" data-name="Layer 1"><path d="M328,36.47q6.57,6,6.58,17a41.25,41.25,0,0,1-.89,8.34l-7.46,37.67H306.5l7.21-36.28a26.08,26.08,0,0,0,.51-5.18q0-5.19-2.72-7.84t-8-2.65q-14.28,0-17.82,17.06L278.7,99.48H259l7.2-36.28a25.45,25.45,0,0,0,.51-5.05q0-5.19-2.72-7.9c-1.81-1.82-4.49-2.72-8-2.72q-14.28,0-17.95,17.32l-6.82,34.63H211.45l13.52-68h18.71l-1.51,7.08a30.54,30.54,0,0,1,21.36-8.09,27,27,0,0,1,12.58,2.85,18.66,18.66,0,0,1,8.27,8.28,33,33,0,0,1,11.51-8.28,35.81,35.81,0,0,1,14.41-2.85Q321.41,30.46,328,36.47Z"/><path d="M427.35,31.47l-13.53,68H395.11l1.27-6.7q-8.47,7.71-20.86,7.71a30.05,30.05,0,0,1-14.66-3.66,27.36,27.36,0,0,1-10.68-10.56,31.84,31.84,0,0,1-4-16.24,41.25,41.25,0,0,1,5-20.29,36.94,36.94,0,0,1,13.59-14.16,36.39,36.39,0,0,1,19-5.12q15.66,0,22.12,10.24l1.77-9.23ZM392,81.34a19.25,19.25,0,0,0,7.08-7.9,25.62,25.62,0,0,0,2.53-11.63q0-6.95-4.11-11t-11.44-4a18.9,18.9,0,0,0-17.44,10.74A25.62,25.62,0,0,0,366,69.14q0,7,4.11,11t11.44,4A19.11,19.11,0,0,0,392,81.34Z"/><path d="M482.71,61.05l23.38,38.43H483.21L467,73.06l-12,10-3.29,16.43H432L450.73,5.69h19.72L460,58.15l32.61-26.68h25.66Z"/><path d="M583.33,70.79H531.25q1,13.9,17.57,13.9a30.22,30.22,0,0,0,9.92-1.64A25.46,25.46,0,0,0,567,78.37l8.22,13a39.52,39.52,0,0,1-13,6.83,52,52,0,0,1-15.42,2.27,42.63,42.63,0,0,1-18.4-3.73,27.52,27.52,0,0,1-12.13-10.68A30.18,30.18,0,0,1,512,70a40.49,40.49,0,0,1,5.12-20.29,36.92,36.92,0,0,1,14.22-14.16,41.59,41.59,0,0,1,20.73-5.12,37.65,37.65,0,0,1,17.13,3.67,26.48,26.48,0,0,1,11.25,10.49,30.73,30.73,0,0,1,4,15.8A54,54,0,0,1,583.33,70.79ZM539.46,49a20.13,20.13,0,0,0-6.82,10.3h33.75q0-6.57-4.11-10.3t-11.06-3.73A18.64,18.64,0,0,0,539.46,49Z"/><polygon points="603.55 31.47 623.14 31.47 609.62 99.48 590.02 99.48 603.55 31.47"/><path class="cls-1" d="M608.42,19a9.5,9.5,0,0,1-3.23-7.26,11,11,0,0,1,3.6-8.41A13.32,13.32,0,0,1,618.21,0a12.27,12.27,0,0,1,8.41,2.84,9,9,0,0,1,3.22,7,11.34,11.34,0,0,1-3.66,8.78A13.5,13.5,0,0,1,616.69,22,11.7,11.7,0,0,1,608.42,19Z"/><path d="M654.74,75.46a12,12,0,0,0-.25,2.78q0,6.58,7.2,6.58a15.58,15.58,0,0,0,8-2.4l2.9,14q-6.57,4-16.93,4-9.61,0-15.43-5.06t-5.81-13.9a33.32,33.32,0,0,1,.63-5.94l5.44-27.43H630L633,33h10.49l3.29-16.56H666.5L663.21,33h16.94l-3,15.17H660.18Z"/><path d="M764.46,31.47,753.21,88.1q-3.8,19.22-14.6,28.07T709.73,125a68.57,68.57,0,0,1-18.14-2.27,42.36,42.36,0,0,1-14.22-6.7l9.35-14.28a29.45,29.45,0,0,0,10.43,5.37,45.79,45.79,0,0,0,13.46,2q10,0,15.17-4.36t7.08-13.21l.5-2.91q-8.21,7.58-20.73,7.58a33.18,33.18,0,0,1-15.29-3.47,26.76,26.76,0,0,1-10.81-9.93,28.28,28.28,0,0,1-4-15.16,36.75,36.75,0,0,1,4.93-18.84,36.13,36.13,0,0,1,13.59-13.4,38.57,38.57,0,0,1,19.4-4.93,31.13,31.13,0,0,1,14,3,19.52,19.52,0,0,1,9,9.17l2.15-11.13Zm-32.36,43q5.56-5.57,5.56-14.28a12.48,12.48,0,0,0-4-9.8q-4.05-3.6-11.25-3.6A19.54,19.54,0,0,0,708,52.33a19.22,19.22,0,0,0-5.62,14.28,12.28,12.28,0,0,0,4.17,9.8q4.17,3.6,11.37,3.6A19.18,19.18,0,0,0,732.1,74.45Z"/><path d="M810.53,32.61a45.48,45.48,0,0,1,14.73-2.15l-3.54,18.21c-2.36-.17-3.88-.26-4.55-.26q-9,0-14.35,4.43t-7.27,13.77L789,99.48H769.26l13.53-68H801.5l-1.65,8.09A25.68,25.68,0,0,1,810.53,32.61Z"/><path d="M840.11,96.7A28.34,28.34,0,0,1,828.1,86a30,30,0,0,1-4.23-16,39,39,0,0,1,5.31-20.23,38.14,38.14,0,0,1,14.66-14.15A42.77,42.77,0,0,1,865,30.46,40.5,40.5,0,0,1,883,34.26,28.19,28.19,0,0,1,895,44.94a29.93,29.93,0,0,1,4.24,16A39.28,39.28,0,0,1,894,81.15,37.62,37.62,0,0,1,879.3,95.31a43.24,43.24,0,0,1-21.17,5.18A40.63,40.63,0,0,1,840.11,96.7Zm29.52-15.36a19.32,19.32,0,0,0,7.08-7.9,25.75,25.75,0,0,0,2.53-11.63q0-6.95-4-11t-11.38-4a18.9,18.9,0,0,0-17.44,10.74,25.62,25.62,0,0,0-2.53,11.63q0,7,4.11,11t11.44,4A18.89,18.89,0,0,0,869.63,81.34Z"/><path d="M1027,31.47l-37.54,68H970l-7.83-42.35L938.77,99.48H919.56l-12-68h18L933,77.23l25.53-45.76h16.94l7.71,45.76,25.28-45.76Z"/><polygon class="cls-1" points="204 30.14 190 100.14 112 178.13 0 178.13 8 139.13 95 139.13 204 30.14"/></g></g></svg>